<?xml version="1.0" encoding="UTF-8" standalone="no"?><!DOCTYPE svg PUBLIC "-//W3C//DTD SVG 1.1//EN" "http://www.w3.org/Graphics/SVG/1.1/DTD/svg11.dtd"><svg width="100%" height="100%" viewBox="0 0 810 810" version="1.1" xmlns="http://www.w3.org/2000/svg" xmlns:xlink="http://www.w3.org/1999/xlink" xml:space="preserve" xmlns:serif="http://www.serif.com/" style="fill-rule:evenodd;clip-rule:evenodd;stroke-linejoin:round;stroke-miterlimit:2;"><g><circle cx="395.74" cy="405.557" r="365.446" style="fill:url(#_Radial1);"/><path d="M445.199,43.436c178.35,24.186 315.986,177.207 315.986,362.121c-0,201.695 -163.751,365.445 -365.445,365.445c-118.255,0 -223.465,-56.288 -290.273,-143.505c-24.601,-51.723 -38.252,-108.838 -38.252,-168.869c-0,-207.636 163.316,-380.412 377.984,-415.192Z" style="fill:url(#_Linear2);"/><path d="M228.399,80.646c-11.449,10.608 -45.108,49.717 -22.405,126.909c27.07,92.04 119.108,112.612 119.108,112.612l-122.356,-6.497c-0,0 -60.637,-20.573 -66.051,-30.318c-5.415,-9.745 -20.573,-96.369 -15.16,-114.777c0.508,-1.725 1.49,-4.353 2.857,-7.704c29.423,-32.605 64.633,-59.888 104.007,-80.225Z" style="fill:#00b7ff;fill-opacity:0.43;"/><path d="M56.554,541.966c1.363,-1.661 2.306,-2.476 2.432,-2.201c18.646,40.532 86.553,56.863 149.032,58.208c93.011,2.003 178.344,16.384 217.156,73.662c19.014,28.064 25.875,56.588 10.626,93.637c-0.229,0.556 -1.751,2.075 -4.12,4.189c-9.703,0.95 -19.505,1.521 -29.407,1.697c-155.846,2.786 -290.781,-92.614 -345.719,-229.192Zm261.74,-493.399c22.908,-4.948 46.616,-7.749 70.915,-8.184c201.663,-3.605 368.315,157.192 371.92,358.855c0.211,11.798 -0.141,23.476 -1.033,35.03c-1.846,-95.597 -82.898,-208.905 -150.632,-242.618c-90.85,-45.218 -152.395,-31.796 -174.997,9.228c-24.499,44.474 2.192,98.87 95.19,153.512c227.527,133.684 105.889,307.1 92.583,338.11c-31.22,24.711 -66.591,44.446 -104.913,57.972c-0.618,-0.145 -1.237,-0.296 -1.858,-0.452c47.762,-21.163 100.641,-87.881 74.3,-198.207c-22.198,-92.975 -55.538,-127.884 -224.04,-115.054c-143.318,10.912 -232.848,-50.854 -268.345,-132.823c-11.282,-26.051 -17.114,-53.984 -17.543,-81.89c34.328,-58.845 84.639,-107.326 145.081,-139.375c-33.026,28.42 -29.39,92.471 -15.567,125.258c29.684,70.404 126.863,108.648 150.012,117.35c74.386,27.966 -119.241,-182.603 -56.863,-259.82c4.771,-5.908 10.031,-11.551 15.79,-16.892Zm344.671,606.38c96.121,-143.189 -27.314,-319.6 -115.419,-350.903c-31.84,-11.313 -52.654,-26.575 -63.042,-43.434c-7.31,-11.865 -32.553,-23.52 -25.863,-32.495c32.475,-43.555 102.409,-19.227 132.737,-4.573c73.445,35.485 149.996,240.92 158.644,272.16c-15.319,60.413 -45.732,114.943 -87.057,159.245Z" style="fill:#00c4ff;fill-opacity:0.25;"/><path d="M65.256,558.349c20.675,39.537 89.32,52.408 151.786,50.589c92.995,-2.709 178.946,7.335 220.607,62.574c20.412,27.066 28.706,55.207 15.352,92.979c-1.117,3.161 -40.743,38.13 -45.219,38.13c-121.052,-0 -295.372,-95.893 -352.115,-193.049c-13.107,-22.443 8.845,-52.646 9.589,-51.223Zm239.176,-508.681c29.418,-7.651 60.282,-11.723 92.089,-11.723c114.741,0 217.202,52.994 284.217,135.813c17.213,21.272 186.278,216.027 78.88,272.025c11.44,-100.929 -85.883,-229.687 -162.212,-262.97c-93.023,-40.561 -153.811,-24.041 -174.306,18.075c-22.217,45.658 7.194,98.634 102.839,148.497c237.277,123.701 118.077,306.376 109.149,334.225c-13.786,18.188 -31.832,75.76 -103.29,61.615c46.629,-23.554 96.061,-92.862 64.17,-201.715c-26.876,-91.73 -61.941,-124.908 -229.578,-103.564c-142.581,18.154 -235.123,-39.001 -274.725,-119.068c-12.688,-25.654 -19.942,-53.498 -21.709,-81.583c23.401,-46.44 56.419,-125.332 96.435,-157.83c6.1,-4.953 36.618,-24.441 50.832,4.782c-42.086,25.617 -35.435,98.175 -18.589,133.079c33.209,68.812 132.2,102.086 155.76,109.606c75.707,24.164 -128.332,-176.332 -69.945,-256.608c5.807,-7.983 12.459,-15.561 19.983,-22.656Zm363.052,603.797c101.944,-150.267 -34.495,-327.819 -126.229,-355.268c-32.371,-9.686 -53.93,-23.874 -65.158,-40.186c-7.902,-11.48 -33.703,-21.843 -27.474,-31.144c30.226,-45.144 101.302,-24.387 132.335,-11.287c79.978,33.76 173.213,259.599 173.213,267.506c-0,37.919 -17.915,213.961 -86.687,170.379Z" style="fill:url(#_Linear3);"/><path d="M53.188,606.043c43.248,18.558 97.672,28.906 166.12,26.912c92.995,-2.708 158.157,12.531 192.021,45.249c31.105,30.052 29.568,73.284 0.322,125.58c-4.659,0.162 -9.369,0.245 -14.098,0.245c-146.842,0 -275.238,-79.603 -344.365,-197.986Zm315.054,-597.894c9.69,-0.705 19.459,-1.063 29.311,-1.063c216.757,-0 393.322,173.443 398.361,389.008c-34.176,-103.845 -116.869,-179.303 -220.497,-223.048c-93.494,-39.465 -158.142,-7.582 -178.636,34.534c-22.218,45.658 -0.498,117.576 102.839,148.496c80.486,24.084 159.974,99.171 170.484,193.571c6.375,57.264 -26.323,182.181 -102.735,197.258c49.223,-22.317 57.635,-108.652 48.189,-152.524c-20.118,-93.446 -107.852,-169.087 -275.488,-147.743c-142.581,18.154 -235.123,-39.001 -274.725,-119.068c-16.176,-32.706 -23.52,-68.97 -21.924,-104.748c29.324,-56.67 78.787,-109.753 130.429,-146.491c-17.073,17.617 -18.204,49.511 -18.896,69.008c-5.443,152.991 175.936,182.759 165.325,177.291c-89.225,-45.971 -120.537,-163.339 -62.149,-243.614c22.985,-31.603 59.235,-56.859 110.112,-70.867Zm329.121,651.907c21.342,-26.472 29.637,-82.238 25.843,-116.321c-12.912,-115.975 -109.387,-209.259 -208.271,-238.847c-32.371,-9.685 -53.93,-23.873 -65.158,-40.185c-7.902,-11.48 -9.852,-23.677 -4.953,-33.743c5.106,-10.493 16.558,-17.799 31.928,-20.932c20.476,-4.174 46.853,-0.856 77.885,12.243c105.234,44.423 186.814,125.747 202.175,241.805c5.275,39.855 1.326,163.187 -59.449,195.98Z" style="fill:url(#_Radial4);"/><path d="M291.545,789.748c-101.305,-27.927 -186.505,-94.905 -238.357,-183.705c43.248,18.558 97.672,28.906 166.12,26.912c92.995,-2.708 158.157,12.531 192.021,45.249c19.982,19.306 26.493,44.05 20.841,73.145c-44.08,19.008 -91.285,32.139 -140.625,38.399Zm326.933,-173.824c-0.547,-7.868 -1.544,-15.156 -2.92,-21.543c-20.118,-93.446 -107.852,-169.087 -275.488,-147.743c-142.581,18.154 -235.123,-39.001 -274.725,-119.068c-16.176,-32.706 -23.52,-68.97 -21.924,-104.748c29.324,-56.67 78.787,-109.753 130.429,-146.491c-17.073,17.617 -18.204,49.511 -18.896,69.008c-5.443,152.991 175.936,182.759 165.325,177.291c-89.225,-45.971 -120.537,-163.339 -62.149,-243.614c22.985,-31.603 59.235,-56.859 110.112,-70.867c9.69,-0.705 19.459,-1.063 29.311,-1.063c149.757,-0 280.328,82.791 348.413,205.087c2.079,18.944 3.146,38.192 3.146,57.687c-0,11.396 -0.364,22.709 -1.083,33.912c-42.378,-57.312 -102.735,-101.228 -172.612,-130.726c-93.494,-39.465 -158.142,-7.582 -178.636,34.534c-22.218,45.658 -0.498,117.576 102.839,148.496c79.745,23.862 158.511,97.794 170.175,190.966c-15.231,24.369 -32.407,47.399 -51.317,68.882Zm87.774,-138.302c-34.392,-84.419 -112.081,-149.024 -191.317,-172.734c-32.371,-9.685 -53.93,-23.873 -65.158,-40.185c-7.902,-11.48 -9.852,-23.677 -4.953,-33.743c5.106,-10.493 16.558,-17.799 31.928,-20.932c20.476,-4.174 46.853,-0.856 77.885,12.243c80.578,34.015 147.288,89.664 181.022,165.982c-7.147,30.917 -17.036,60.792 -29.407,89.369Z" style="fill:url(#_Linear5);"/><path d="M124.331,626.78c28.194,4.955 59.726,7.202 94.977,6.175c92.995,-2.708 158.157,12.531 192.021,45.249c19.982,19.306 26.493,44.05 20.841,73.145c-33.13,14.287 -68.027,25.252 -104.275,32.478c-84.438,-31.373 -155.62,-86.792 -203.564,-157.047Zm131.018,-543.815c67.064,-40.001 146.973,-63.233 232.716,-63.233c3.27,0 6.533,0.034 9.77,0.101c106.535,27.666 195.795,98.332 248.131,192.34c2.079,18.944 3.146,38.192 3.146,57.687c-0,11.396 -0.364,22.709 -1.083,33.912c-42.378,-57.312 -102.735,-101.228 -172.612,-130.726c-93.494,-39.465 -158.142,-7.582 -178.636,34.534c-22.218,45.658 -0.498,117.576 102.839,148.496c79.745,23.862 158.511,97.794 170.175,190.966c-15.231,24.369 -32.407,47.399 -51.317,68.882c-0.547,-7.868 -1.544,-15.156 -2.92,-21.543c-20.118,-93.446 -107.852,-169.087 -275.488,-147.743c-139.43,17.753 -231.008,-36.512 -272.021,-113.793c14.488,-62.501 44.974,-119.56 87.291,-167.323c10.313,135.45 175.067,162.326 164.939,157.108c-87.769,-45.223 -119.5,-159.531 -64.93,-239.665Zm450.903,394.657c-34.392,-84.419 -112.081,-149.024 -191.317,-172.734c-32.371,-9.685 -53.93,-23.873 -65.158,-40.185c-7.902,-11.48 -9.852,-23.677 -4.953,-33.743c5.106,-10.493 16.558,-17.799 31.928,-20.932c20.476,-4.174 46.853,-0.856 77.885,12.243c80.578,34.015 147.288,89.664 181.022,165.982c-7.147,30.917 -17.036,60.792 -29.407,89.369Z" style="fill:url(#_Linear6);"/><path d="M353.45,12.672c4.783,-1.615 9.714,-3.125 14.792,-4.523c9.69,-0.705 19.459,-1.063 29.311,-1.063c149.757,-0 280.328,82.791 348.413,205.087c2.079,18.944 3.146,38.192 3.146,57.687c-0,11.396 -0.364,22.709 -1.083,33.912c-42.378,-57.312 -102.735,-101.228 -172.612,-130.726c-93.494,-39.465 -158.142,-7.582 -178.636,34.534c-22.218,45.658 -0.498,117.576 102.839,148.496c79.745,23.862 158.511,97.794 170.175,190.966c-4.596,7.353 -9.368,14.583 -14.311,21.685c-14.628,3.353 -29.62,5.727 -44.911,7.052c-27.305,-84.586 -114.148,-149.049 -270.503,-129.141c-6.303,0.802 -12.506,1.457 -18.611,1.969c-32.068,-41.677 -54.361,-91.244 -63.446,-145.258c36.136,17.501 66.81,21.622 62.266,19.281c-28.418,-14.643 -50.962,-36.527 -66.61,-62.161c-0.14,-3.945 -0.211,-7.916 -0.211,-11.904c-0,-92.523 38.339,-176.163 99.992,-235.893Zm352.802,464.95c-34.392,-84.419 -112.081,-149.024 -191.317,-172.734c-32.371,-9.685 -53.93,-23.873 -65.158,-40.185c-7.902,-11.48 -9.852,-23.677 -4.953,-33.743c5.106,-10.493 16.558,-17.799 31.928,-20.932c20.476,-4.174 46.853,-0.856 77.885,12.243c80.578,34.015 147.288,89.664 181.022,165.982c-7.147,30.917 -17.036,60.792 -29.407,89.369Z" style="fill:url(#_Linear7);"/><path d="M575.988,656.16c4.021,30.163 -26.853,71.899 -62.369,87.491c-35.516,15.592 -38.982,-5.198 -38.982,-25.12c-0,-19.925 -6.93,-43.313 -15.592,-54.574c-8.662,-11.261 115.211,-20.79 116.943,-7.797Z" style="fill:url(#_Linear8);"/><path d="M445.267,581.703c8.491,4.413 16.034,9.756 22.224,16.203c51.975,54.141 30.318,67.134 30.318,67.134l43.155,-20.379c-7.15,-49.192 -36.7,-79.539 -75.372,-97.752c-6.704,13.259 -13.714,24.906 -20.325,34.794Zm42.582,-91.588c-4.074,14.354 -8.989,27.692 -14.323,39.929c-0.488,1.118 -0.979,2.227 -1.476,3.331c41.904,19.72 74.236,52.235 83.135,104.571l20.587,-9.721c-0,-0 10.611,-120.984 -87.923,-138.11Zm-215.98,32.901l-3.614,44.572c0,-0 98.753,-15.975 163.07,7.973c6.575,-9.658 13.658,-21.226 20.437,-34.533c-57.041,-21.869 -128.528,-22.017 -179.893,-18.012Zm1.211,-14.939c53.274,-3.88 126.67,-3.294 185.183,19.393c0.508,-1.126 1.014,-2.268 1.517,-3.418c4.841,-11.107 9.322,-23.167 13.089,-36.11c-93.825,-12.459 -141.979,-0.482 -198.117,-0.482l-1.672,20.617Z" style="fill:#fff;fill-opacity:0.18;"/><path d="M73.35,225.422c0,-0 -4.331,155.923 188.409,175.414l25.987,-54.14c0,-0 -162.421,-56.306 -155.924,-188.407c-0,-0 -45.477,38.98 -58.472,67.133Z" style="fill:#fff;fill-opacity:0.36;"/><path d="M233.214,132.298c51.779,-58.425 127.388,-95.285 211.538,-95.285c140.614,0 257.38,102.916 279.019,237.468c-39.886,-43.182 -90.902,-77.182 -148.354,-101.435c-93.494,-39.465 -158.142,-7.582 -178.636,34.534c-22.218,45.658 -0.498,117.576 102.839,148.496c66.892,20.016 133.094,75.262 159.581,147.541c-16.623,19.356 -35.821,36.441 -57.054,50.712c-34.426,-73.66 -119.251,-125.876 -262.077,-107.691c-60.468,7.699 -111.937,1.854 -154.194,-13.546c-15.26,-34.728 -23.736,-73.115 -23.736,-113.467c-0,-30.571 4.865,-60.015 13.863,-87.602c46.429,78.08 152.46,94.824 144.276,90.607c-70.88,-36.52 -105.213,-118.095 -87.065,-190.332Zm461.114,319.957c-38.443,-71.891 -108.295,-126.093 -179.393,-147.367c-32.371,-9.685 -53.93,-23.873 -65.158,-40.185c-7.902,-11.48 -9.852,-23.677 -4.953,-33.743c5.106,-10.493 16.558,-17.799 31.928,-20.932c20.476,-4.174 46.853,-0.856 77.885,12.243c72.012,30.399 132.948,78.076 169.16,142.33c-4.999,31.22 -15.123,60.74 -29.469,87.654Z" style="fill:url(#_Linear9);"/><path d="M71.639,621.647c-0,-0 38.258,24.307 122.056,31.021c83.796,6.714 145.78,29.304 162.61,58.196c16.83,28.893 -5.088,84.849 -5.088,84.849c-0,0 -195.81,-34.001 -279.578,-174.066Z" style="fill:url(#_Linear10);"/></g><defs><radialGradient id="_Radial1" cx="0" cy="0" r="1" gradientUnits="userSpaceOnUse" gradientTransform="matrix(378.981,389.808,-389.808,378.981,242.547,274.047)"><stop offset="0" style="stop-color:#00acff;stop-opacity:1"/><stop offset="0.46" style="stop-color:#0034ff;stop-opacity:1"/><stop offset="0.84" style="stop-color:#021027;stop-opacity:1"/><stop offset="1" style="stop-color:#1000ff;stop-opacity:1"/></radialGradient><linearGradient id="_Linear2" x1="0" y1="0" x2="1" y2="0" gradientUnits="userSpaceOnUse" gradientTransform="matrix(207.898,-209.342,209.342,207.898,88.8983,636.194)"><stop offset="0" style="stop-color:#00ffd2;stop-opacity:1"/><stop offset="1" style="stop-color:#006799;stop-opacity:0"/></linearGradient><linearGradient id="_Linear3" x1="0" y1="0" x2="1" y2="0" gradientUnits="userSpaceOnUse" gradientTransform="matrix(264.204,656.179,-656.179,264.204,162.145,106.388)"><stop offset="0" style="stop-color:#000c24;stop-opacity:1"/><stop offset="1" style="stop-color:#080061;stop-opacity:1"/></linearGradient><radialGradient id="_Radial4" cx="0" cy="0" r="1" gradientUnits="userSpaceOnUse" gradientTransform="matrix(271.783,406.051,-406.051,271.783,342.603,345.705)"><stop offset="0" style="stop-color:#fff;stop-opacity:1"/><stop offset="0.81" style="stop-color:#9a9a9a;stop-opacity:1"/><stop offset="1" style="stop-color:#cecece;stop-opacity:1"/></radialGradient><linearGradient id="_Linear5" x1="0" y1="0" x2="1" y2="0" gradientUnits="userSpaceOnUse" gradientTransform="matrix(-350.828,-244.713,244.713,-350.828,751.25,573.009)"><stop offset="0" style="stop-color:#fff;stop-opacity:1"/><stop offset="1" style="stop-color:#b3b3b3;stop-opacity:0"/></linearGradient><linearGradient id="_Linear6" x1="0" y1="0" x2="1" y2="0" gradientUnits="userSpaceOnUse" gradientTransform="matrix(586.157,0,0,586.157,-133.407,296.95)"><stop offset="0" style="stop-color:#141414;stop-opacity:1"/><stop offset="1" style="stop-color:#5c5c5c;stop-opacity:0"/></linearGradient><linearGradient id="_Linear7" x1="0" y1="0" x2="1" y2="0" gradientUnits="userSpaceOnUse" gradientTransform="matrix(3.01703e-14,-492.718,492.718,3.01703e-14,413.727,504.779)"><stop offset="0" style="stop-color:#fff;stop-opacity:0.29"/><stop offset="1" style="stop-color:#fff;stop-opacity:0"/></linearGradient><linearGradient id="_Linear8" x1="0" y1="0" x2="1" y2="0" gradientUnits="userSpaceOnUse" gradientTransform="matrix(7.58501e-15,-123.873,123.873,7.58501e-15,491.099,808.607)"><stop offset="0" style="stop-color:#fff;stop-opacity:1"/><stop offset="1" style="stop-color:#fff;stop-opacity:0"/></linearGradient><linearGradient id="_Linear9" x1="0" y1="0" x2="1" y2="0" gradientUnits="userSpaceOnUse" gradientTransform="matrix(-110.446,136.433,-136.433,-110.446,564.927,67.3426)"><stop offset="0" style="stop-color:#fff;stop-opacity:1"/><stop offset="1" style="stop-color:#b3b3b3;stop-opacity:0"/></linearGradient><linearGradient id="_Linear10" x1="0" y1="0" x2="1" y2="0" gradientUnits="userSpaceOnUse" gradientTransform="matrix(148.058,110.615,-110.615,148.058,93.8401,633.721)"><stop offset="0" style="stop-color:#fff;stop-opacity:1"/><stop offset="1" style="stop-color:#b3b3b3;stop-opacity:0"/></linearGradient></defs></svg>