<svg xmlns="http://www.w3.org/2000/svg" viewBox="-3.8899850463867267 76.74995422363281 704.6599731445312 351.5850467681885"><rect height="100%" width="100%" x="-3.8899850463867267" y="76.74995422363281" fill="rgba(3, 1, 34, 1)"/> <svg xmlns="http://www.w3.org/2000/svg" xmlns:xlink="http://www.w3.org/1999/xlink" xmlnsSerif="http://www.serif.com/" viewBox="0 -0.00003254413604736328 517.60400390625 538.7800903320312" version="1.1" xml:space="preserve" height="127.30738830566406" width="122.30377566625859" y="146.7499542236328" x="102.28494262695311" preserveAspectRatio="xMinYMin" fill-rule="evenodd" clip-rule="evenodd" stroke-linejoin="round" stroke-miterlimit="2" style="overflow: visible;"><circle cx="247.063" cy="269.39" r="247.063" style="fill: url(#_Radial1);"></circle><path d="M280.5,24.575c120.575,16.351 213.625,119.802 213.625,244.815c0,136.357 -110.705,247.062 -247.062,247.062c-79.947,0 -151.075,-38.054 -196.241,-97.018c-16.632,-34.968 -25.861,-73.581 -25.861,-114.165c0,-140.374 110.411,-257.181 255.539,-280.694Z" style="fill: url(#_Linear2);"></path><path d="M133.931,49.731c-7.74,7.172 -30.496,33.612 -15.147,85.798c18.301,62.224 80.524,76.132 80.524,76.132l-82.72,-4.392c-0,0 -40.994,-13.909 -44.654,-20.497c-3.661,-6.588 -13.909,-65.151 -10.249,-77.596c0.343,-1.166 1.007,-2.943 1.931,-5.208c19.892,-22.043 43.696,-40.488 70.315,-54.237Z" style="fill: #00b7ff; fill-opacity: 0.43;"></path><path d="M17.754,361.61c0.921,-1.123 1.559,-1.674 1.644,-1.488c12.606,27.402 58.515,38.443 100.754,39.352c62.881,1.354 120.571,11.077 146.81,49.8c12.855,18.973 17.493,38.257 7.184,63.304c-0.155,0.376 -1.184,1.403 -2.785,2.832c-6.56,0.642 -13.187,1.028 -19.881,1.147c-105.361,1.884 -196.585,-62.612 -233.726,-154.947Zm176.951,-333.566c15.487,-3.345 31.515,-5.239 47.943,-5.533c136.336,-2.437 249.002,106.271 251.439,242.607c0.143,7.976 -0.095,15.871 -0.698,23.682c-1.248,-64.629 -56.044,-141.232 -101.836,-164.024c-61.42,-30.57 -103.028,-21.496 -118.308,6.239c-16.563,30.067 1.482,66.842 64.354,103.783c153.821,90.378 71.587,207.617 62.591,228.582c-21.106,16.706 -45.019,30.048 -70.927,39.192c-0.418,-0.098 -0.836,-0.2 -1.256,-0.305c32.29,-14.308 68.039,-59.413 50.231,-134c-15.007,-62.856 -37.547,-86.457 -151.464,-77.783c-96.891,7.377 -157.419,-34.38 -181.417,-89.796c-7.627,-17.612 -11.57,-36.496 -11.86,-55.362c23.208,-39.783 57.221,-72.559 98.083,-94.226c-22.327,19.214 -19.869,62.516 -10.524,84.682c20.068,47.597 85.767,73.452 101.417,79.335c50.289,18.907 -80.614,-123.45 -38.443,-175.653c3.226,-3.994 6.782,-7.809 10.675,-11.42Zm233.018,409.948c64.983,-96.804 -18.466,-216.068 -78.03,-237.231c-21.526,-7.648 -35.597,-17.966 -42.62,-29.364c-4.942,-8.021 -22.008,-15.901 -17.485,-21.968c21.955,-29.446 69.234,-12.999 89.738,-3.092c49.653,23.99 101.406,162.876 107.252,183.996c-10.356,40.843 -30.917,77.708 -58.855,107.659Z" style="fill: #00c4ff; fill-opacity: 0.25;"></path><path d="M23.637,372.686c13.977,26.729 60.385,35.431 102.616,34.201c62.87,-1.831 120.978,4.959 149.143,42.304c13.8,18.298 19.407,37.323 10.379,62.859c-0.755,2.137 -27.545,25.778 -30.571,25.778c-81.838,-0 -199.688,-64.829 -238.05,-130.512c-8.861,-15.173 5.98,-35.592 6.483,-34.63Zm161.697,-343.898c19.888,-5.172 40.754,-7.925 62.257,-7.925c77.572,0 146.841,35.827 192.147,91.817c11.637,14.381 125.935,146.047 53.328,183.905c7.734,-68.234 -58.062,-155.282 -109.665,-177.783c-62.889,-27.422 -103.985,-16.253 -117.841,12.22c-15.02,30.867 4.864,66.682 69.525,100.392c160.413,83.629 79.827,207.128 73.791,225.956c-9.32,12.296 -21.52,51.218 -69.83,41.655c31.524,-15.924 64.943,-62.78 43.383,-136.371c-18.17,-62.015 -41.876,-84.445 -155.208,-70.015c-96.393,12.273 -158.957,-26.367 -185.73,-80.497c-8.578,-17.344 -13.482,-36.168 -14.677,-55.155c15.821,-31.396 38.143,-84.732 65.196,-106.702c4.124,-3.349 24.756,-16.524 34.365,3.233c-28.452,17.318 -23.956,66.372 -12.567,89.969c22.451,46.521 89.375,69.016 105.303,74.1c51.182,16.336 -86.76,-119.211 -47.287,-173.482c3.926,-5.397 8.423,-10.52 13.51,-15.317Zm245.444,408.202c68.92,-101.589 -23.321,-221.625 -85.338,-240.182c-21.885,-6.548 -36.46,-16.14 -44.051,-27.168c-5.342,-7.761 -22.785,-14.767 -18.574,-21.055c20.435,-30.52 68.486,-16.487 89.466,-7.631c54.07,22.824 117.102,175.504 117.102,180.85c0,25.635 -12.111,144.65 -58.605,115.186Z" style="fill: url(#_Linear3);"></path><path d="M15.478,404.93c29.238,12.546 66.032,19.542 112.307,18.194c62.87,-1.831 106.923,8.472 129.817,30.591c21.029,20.317 19.99,49.544 0.218,84.899c-3.15,0.11 -6.334,0.166 -9.531,0.166c-99.274,-0 -186.077,-53.816 -232.811,-133.85Zm212.995,-404.211c6.551,-0.477 13.155,-0.719 19.816,-0.719c146.54,-0 265.908,117.258 269.315,262.992c-23.105,-70.205 -79.01,-121.219 -149.069,-150.793c-63.207,-26.681 -106.913,-5.126 -120.768,23.347c-15.021,30.867 -0.337,79.488 69.525,100.392c54.413,16.282 108.152,67.045 115.257,130.865c4.31,38.714 -17.796,123.165 -69.455,133.358c33.278,-15.088 38.965,-73.455 32.579,-103.115c-13.601,-63.175 -72.914,-114.313 -186.246,-99.883c-96.393,12.273 -158.957,-26.367 -185.73,-80.497c-10.936,-22.111 -15.901,-46.628 -14.822,-70.816c19.825,-38.312 53.265,-74.199 88.178,-99.036c-11.543,11.91 -12.307,33.472 -12.775,46.653c-3.68,103.431 118.943,123.556 111.769,119.859c-60.321,-31.079 -81.49,-110.426 -42.016,-164.697c15.539,-21.365 40.046,-38.44 74.442,-47.91Zm222.505,440.727c14.428,-17.897 20.036,-55.598 17.471,-78.64c-8.729,-78.406 -73.952,-141.471 -140.803,-161.474c-21.885,-6.548 -36.46,-16.14 -44.051,-27.168c-5.342,-7.761 -6.66,-16.007 -3.348,-22.812c3.452,-7.094 11.194,-12.033 21.585,-14.151c13.843,-2.822 31.675,-0.579 52.655,8.277c71.144,30.032 126.297,85.012 136.682,163.474c3.566,26.944 0.896,110.324 -40.191,132.494Z" style="fill: url(#_Radial4);"></path><path d="M176.621,529.125c-68.488,-18.88 -126.088,-64.161 -161.143,-124.195c29.238,12.546 66.032,19.542 112.307,18.194c62.87,-1.831 106.923,8.472 129.817,30.591c13.509,13.052 17.911,29.78 14.09,49.45c-29.801,12.851 -61.714,21.728 -95.071,25.96Zm221.026,-117.515c-0.37,-5.319 -1.044,-10.246 -1.974,-14.564c-13.601,-63.175 -72.914,-114.313 -186.246,-99.883c-96.393,12.273 -158.957,-26.367 -185.73,-80.497c-10.936,-22.111 -15.901,-46.628 -14.822,-70.816c19.825,-38.312 53.265,-74.199 88.178,-99.036c-11.543,11.91 -12.307,33.472 -12.775,46.653c-3.68,103.431 118.943,123.556 111.769,119.859c-60.321,-31.079 -81.49,-110.426 -42.016,-164.697c15.539,-21.365 40.046,-38.44 74.442,-47.91c6.551,-0.477 13.155,-0.719 19.816,-0.719c101.244,0 189.518,55.972 235.547,138.651c1.406,12.807 2.127,25.82 2.127,39c0,7.704 -0.246,15.352 -0.732,22.926c-28.65,-38.746 -69.455,-68.436 -116.696,-88.378c-63.207,-26.681 -106.913,-5.126 -120.768,23.347c-15.021,30.867 -0.337,79.488 69.525,100.392c53.912,16.132 107.163,66.114 115.048,129.104c-10.297,16.475 -21.909,32.044 -34.693,46.568Zm59.34,-93.5c-23.251,-57.072 -75.773,-100.749 -129.341,-116.778c-21.885,-6.548 -36.46,-16.14 -44.051,-27.168c-5.342,-7.761 -6.66,-16.007 -3.348,-22.812c3.452,-7.094 11.194,-12.033 21.585,-14.151c13.843,-2.822 31.675,-0.579 52.655,8.277c54.475,22.996 99.575,60.618 122.381,112.213c-4.832,20.902 -11.517,41.099 -19.881,60.419Z" style="fill: url(#_Linear5);"></path><path d="M63.575,418.949c19.061,3.35 40.378,4.869 64.21,4.175c62.87,-1.831 106.923,8.472 129.817,30.591c13.509,13.052 17.911,29.78 14.09,49.45c-22.398,9.659 -45.99,17.072 -70.496,21.957c-57.085,-21.21 -105.208,-58.676 -137.621,-106.173Zm88.576,-367.65c45.339,-27.043 99.362,-42.749 157.329,-42.749c2.211,0 4.417,0.023 6.605,0.068c72.024,18.704 132.369,66.478 167.751,130.033c1.406,12.807 2.127,25.82 2.127,39c0,7.704 -0.246,15.352 -0.732,22.926c-28.65,-38.746 -69.455,-68.436 -116.696,-88.378c-63.207,-26.681 -106.913,-5.126 -120.768,23.347c-15.021,30.867 -0.337,79.488 69.525,100.392c53.912,16.132 107.163,66.114 115.048,129.104c-10.297,16.475 -21.909,32.044 -34.693,46.568c-0.37,-5.319 -1.044,-10.246 -1.974,-14.564c-13.601,-63.175 -72.914,-114.313 -186.246,-99.883c-94.263,12.002 -156.175,-24.684 -183.902,-76.931c9.795,-42.254 30.405,-80.829 59.014,-113.12c6.972,91.572 118.355,109.742 111.508,106.214c-59.337,-30.573 -80.789,-107.852 -43.896,-162.027Zm304.836,266.811c-23.251,-57.072 -75.773,-100.749 -129.341,-116.778c-21.885,-6.548 -36.46,-16.14 -44.051,-27.168c-5.342,-7.761 -6.66,-16.007 -3.348,-22.812c3.452,-7.094 11.194,-12.033 21.585,-14.151c13.843,-2.822 31.675,-0.579 52.655,8.277c54.475,22.996 99.575,60.618 122.381,112.213c-4.832,20.902 -11.517,41.099 -19.881,60.419Z" style="fill: url(#_Linear6);"></path><path d="M218.473,3.777c3.233,-1.092 6.567,-2.113 10,-3.058c6.551,-0.477 13.155,-0.719 19.816,-0.719c101.244,0 189.518,55.972 235.547,138.651c1.406,12.807 2.127,25.82 2.127,39c0,7.704 -0.246,15.352 -0.732,22.926c-28.65,-38.746 -69.455,-68.436 -116.696,-88.378c-63.207,-26.681 -106.913,-5.126 -120.768,23.347c-15.021,30.867 -0.337,79.488 69.525,100.392c53.912,16.132 107.163,66.114 115.048,129.104c-3.107,4.971 -6.333,9.859 -9.675,14.66c-9.889,2.267 -20.025,3.872 -30.362,4.768c-18.46,-57.185 -77.171,-100.766 -182.876,-87.307c-4.261,0.542 -8.455,0.985 -12.582,1.331c-21.68,-28.176 -36.751,-61.686 -42.893,-98.203c24.43,11.832 45.167,14.618 42.095,13.035c-19.212,-9.899 -34.453,-24.694 -45.032,-42.024c-0.095,-2.667 -0.143,-5.352 -0.143,-8.048c-0,-62.551 25.92,-119.096 67.601,-159.477Zm238.514,314.333c-23.251,-57.072 -75.773,-100.749 -129.341,-116.778c-21.885,-6.548 -36.46,-16.14 -44.051,-27.168c-5.342,-7.761 -6.66,-16.007 -3.348,-22.812c3.452,-7.094 11.194,-12.033 21.585,-14.151c13.843,-2.822 31.675,-0.579 52.655,8.277c54.475,22.996 99.575,60.618 122.381,112.213c-4.832,20.902 -11.517,41.099 -19.881,60.419Z" style="fill: url(#_Linear7);"></path><path d="M368.921,438.812c2.719,20.392 -18.154,48.608 -42.165,59.149c-24.011,10.541 -26.354,-3.514 -26.354,-16.983c0,-13.47 -4.685,-29.282 -10.541,-36.895c-5.856,-7.613 77.889,-14.055 79.06,-5.271Z" style="fill: url(#_Linear8);"></path><path d="M280.546,388.475c5.741,2.983 10.84,6.595 15.025,10.954c35.138,36.602 20.497,45.386 20.497,45.386l29.175,-13.777c-4.834,-33.257 -24.811,-53.773 -50.956,-66.086c-4.532,8.964 -9.271,16.838 -13.741,23.523Zm28.788,-61.919c-2.754,9.704 -6.077,18.721 -9.683,26.994c-0.33,0.756 -0.662,1.506 -0.998,2.252c28.33,13.332 50.188,35.314 56.204,70.696l13.918,-6.572c-0,-0 7.174,-81.792 -59.441,-93.37Zm-146.015,22.243l-2.443,30.133c0,-0 66.763,-10.8 110.245,5.39c4.445,-6.529 9.233,-14.35 13.816,-23.346c-38.563,-14.785 -86.892,-14.885 -121.618,-12.177Zm0.819,-10.1c36.016,-2.623 85.636,-2.227 125.194,13.111c0.344,-0.761 0.686,-1.533 1.026,-2.311c3.273,-7.509 6.302,-15.662 8.849,-24.412c-63.431,-8.423 -95.986,-0.326 -133.939,-0.326l-1.13,13.938Z" style="fill: #fff; fill-opacity: 0.18;"></path><path d="M29.109,147.608c0,0 -2.928,105.413 127.375,118.59l17.569,-36.602c-0,0 -109.806,-38.066 -105.414,-127.374c0,-0 -30.745,26.353 -39.53,45.386Z" style="fill: #fff; fill-opacity: 0.36;"></path><path d="M137.186,84.651c35.006,-39.499 86.122,-64.418 143.012,-64.418c95.063,0 174.004,69.577 188.633,160.542c-26.965,-29.194 -61.455,-52.18 -100.296,-68.576c-63.207,-26.681 -106.913,-5.126 -120.768,23.347c-15.021,30.867 -0.337,79.488 69.525,100.392c45.223,13.532 89.979,50.881 107.886,99.746c-11.238,13.086 -24.217,24.636 -38.572,34.284c-23.274,-49.798 -80.62,-85.099 -177.179,-72.805c-40.88,5.205 -75.676,1.253 -104.244,-9.158c-10.317,-23.478 -16.047,-49.43 -16.047,-76.71c0,-20.668 3.289,-40.574 9.372,-59.224c31.389,52.786 103.072,64.106 97.539,61.255c-47.919,-24.689 -71.13,-79.839 -58.861,-128.675Zm311.74,216.309c-25.99,-48.602 -73.214,-85.246 -121.28,-99.628c-21.885,-6.548 -36.46,-16.14 -44.051,-27.168c-5.342,-7.761 -6.66,-16.007 -3.348,-22.812c3.452,-7.094 11.194,-12.033 21.585,-14.151c13.843,-2.822 31.675,-0.579 52.655,8.277c48.684,20.551 89.88,52.784 114.362,96.223c-3.38,21.107 -10.224,41.064 -19.923,59.259Z" style="fill: url(#_Linear9);"></path><path d="M27.952,415.479c-0,0 25.865,16.433 82.517,20.972c56.651,4.539 98.556,19.811 109.934,39.344c11.378,19.533 -3.44,57.363 -3.44,57.363c-0,0 -132.379,-22.987 -189.011,-117.679Z" style="fill: url(#_Linear10);"></path><radialGradient id="_Radial1" cx="0" cy="0" r="1" gradientUnits="userSpaceOnUse" gradientTransform="matrix(256.213,263.533,-263.533,256.213,143.479,180.447)" style=""><stop offset="0" style="stop-color: #00acff; stop-opacity: 1;"></stop><stop offset="0.46" style="stop-color: #0034ff; stop-opacity: 1;"></stop><stop offset="0.84" style="stop-color: #021027; stop-opacity: 1;"></stop><stop offset="1" style="stop-color: #1000ff; stop-opacity: 1;"></stop></radialGradient><linearGradient id="_Linear2" x1="0" y1="0" x2="1" y2="0" gradientUnits="userSpaceOnUse" gradientTransform="matrix(140.551,-141.527,141.527,140.551,39.6019,425.323)" style=""><stop offset="0" style="stop-color: #00ffd2; stop-opacity: 1;"></stop><stop offset="1" style="stop-color: #006799; stop-opacity: 0;"></stop></linearGradient><linearGradient id="_Linear3" x1="0" y1="0" x2="1" y2="0" gradientUnits="userSpaceOnUse" gradientTransform="matrix(178.617,443.615,-443.615,178.617,89.1364,67.0839)" style=""><stop offset="0" style="stop-color: #000c24; stop-opacity: 1;"></stop><stop offset="1" style="stop-color: #080061; stop-opacity: 1;"></stop></linearGradient><radialGradient id="_Radial4" cx="0" cy="0" r="1" gradientUnits="userSpaceOnUse" gradientTransform="matrix(183.741,274.514,-274.514,183.741,211.13,228.893)" style=""><stop offset="0" style="stop-color: #fff; stop-opacity: 1;"></stop><stop offset="0.81" style="stop-color: #9a9a9a; stop-opacity: 1;"></stop><stop offset="1" style="stop-color: #cecece; stop-opacity: 1;"></stop></radialGradient><linearGradient id="_Linear5" x1="0" y1="0" x2="1" y2="0" gradientUnits="userSpaceOnUse" gradientTransform="matrix(-237.18,-165.44,165.44,-237.18,487.427,382.621)" style=""><stop offset="0" style="stop-color: #fff; stop-opacity: 1;"></stop><stop offset="1" style="stop-color: #b3b3b3; stop-opacity: 0;"></stop></linearGradient><linearGradient id="_Linear6" x1="0" y1="0" x2="1" y2="0" gradientUnits="userSpaceOnUse" gradientTransform="matrix(396.276,0,0,396.276,-110.71,195.952)" style=""><stop offset="0" style="stop-color: #141414; stop-opacity: 1;"></stop><stop offset="1" style="stop-color: #5c5c5c; stop-opacity: 0;"></stop></linearGradient><linearGradient id="_Linear7" x1="0" y1="0" x2="1" y2="0" gradientUnits="userSpaceOnUse" gradientTransform="matrix(2.03969e-14,-333.106,333.106,2.03969e-14,259.213,336.503)" style=""><stop offset="0" style="stop-color: #fff; stop-opacity: 0.29;"></stop><stop offset="1" style="stop-color: #fff; stop-opacity: 0;"></stop></linearGradient><linearGradient id="_Linear8" x1="0" y1="0" x2="1" y2="0" gradientUnits="userSpaceOnUse" gradientTransform="matrix(5.12791e-15,-83.7451,83.7451,5.12791e-15,311.529,541.883)" style=""><stop offset="0" style="stop-color: #fff; stop-opacity: 1;"></stop><stop offset="1" style="stop-color: #fff; stop-opacity: 0;"></stop></linearGradient><linearGradient id="_Linear9" x1="0" y1="0" x2="1" y2="0" gradientUnits="userSpaceOnUse" gradientTransform="matrix(-74.6678,92.2367,-92.2367,-74.6678,361.454,40.7305)" style=""><stop offset="0" style="stop-color: #fff; stop-opacity: 1;"></stop><stop offset="1" style="stop-color: #b3b3b3; stop-opacity: 0;"></stop></linearGradient><linearGradient id="_Linear10" x1="0" y1="0" x2="1" y2="0" gradientUnits="userSpaceOnUse" gradientTransform="matrix(100.096,74.7823,-74.7823,100.096,42.9539,423.631)" style=""><stop offset="0" style="stop-color: #fff; stop-opacity: 1;"></stop><stop offset="1" style="stop-color: #b3b3b3; stop-opacity: 0;"></stop></linearGradient></svg> <svg y="343.125" viewBox="1.25 3.569999933242798 564.6599731445312 15.210000991821289" x="66.11001495361327" height="15.210000991821289" width="564.6599731445312" style="overflow: visible;"><g fill="#0202ff" fill-opacity="1" style=""><path d="M1.25 3.74L4.01 3.74L7.55 13.15L11.08 3.74L13.84 3.74L13.84 16.01L11.72 16.01L11.72 11.97L11.93 6.56L8.30 16.01L6.78 16.01L3.16 6.57L3.37 11.97L3.37 16.01L1.25 16.01L1.25 3.74ZM30.25 16.01L29.25 13.16L24.50 13.16L23.50 16.01L21.28 16.01L25.92 3.74L27.83 3.74L32.48 16.01L30.25 16.01ZM26.87 6.35L25.09 11.44L28.65 11.44L26.87 6.35ZM44.41 11.45L41.87 11.45L41.87 16.01L39.74 16.01L39.74 3.74L44.43 3.74Q46.49 3.74 47.70 4.81Q48.91 5.88 48.91 7.64L48.91 7.64Q48.91 9.45 47.72 10.45Q46.54 11.45 44.41 11.45L44.41 11.45ZM41.87 5.46L41.87 9.74L44.43 9.74Q45.57 9.74 46.17 9.21Q46.77 8.67 46.77 7.66L46.77 7.66Q46.77 6.67 46.16 6.07Q45.55 5.48 44.49 5.46L44.49 5.46L41.87 5.46ZM61.31 11.45L58.77 11.45L58.77 16.01L56.64 16.01L56.64 3.74L61.33 3.74Q63.39 3.74 64.60 4.81Q65.81 5.88 65.81 7.64L65.81 7.64Q65.81 9.45 64.63 10.45Q63.44 11.45 61.31 11.45L61.31 11.45ZM58.77 5.46L58.77 9.74L61.33 9.74Q62.47 9.74 63.07 9.21Q63.67 8.67 63.67 7.66L63.67 7.66Q63.67 6.67 63.06 6.07Q62.46 5.48 61.39 5.46L61.39 5.46L58.77 5.46ZM75.79 3.74L75.79 16.01L73.67 16.01L73.67 3.74L75.79 3.74ZM94.02 3.74L94.02 16.01L91.89 16.01L86.42 7.31L86.42 16.01L84.28 16.01L84.28 3.74L86.42 3.74L91.90 12.48L91.90 3.74L94.02 3.74ZM111.81 9.72L111.81 14.42Q111.15 15.29 109.97 15.74Q108.79 16.18 107.29 16.18L107.29 16.18Q105.74 16.18 104.56 15.48Q103.37 14.78 102.72 13.48Q102.08 12.18 102.05 10.44L102.05 10.44L102.05 9.48Q102.05 6.70 103.38 5.14Q104.72 3.57 107.10 3.57L107.10 3.57Q109.15 3.57 110.36 4.59Q111.56 5.60 111.80 7.50L111.80 7.50L109.71 7.50Q109.36 5.28 107.14 5.28L107.14 5.28Q105.71 5.28 104.97 6.32Q104.22 7.35 104.19 9.35L104.19 9.35L104.19 10.29Q104.19 12.28 105.03 13.38Q105.87 14.48 107.36 14.48L107.36 14.48Q109.00 14.48 109.69 13.74L109.69 13.74L109.69 11.34L107.16 11.34L107.16 9.72L111.81 9.72ZM138.55 3.74L138.55 5.46L134.73 5.46L134.73 16.01L132.61 16.01L132.61 5.46L128.82 5.46L128.82 3.74L138.55 3.74ZM155.78 3.74L155.78 16.01L153.65 16.01L153.65 10.56L148.17 10.56L148.17 16.01L146.03 16.01L146.03 3.74L148.17 3.74L148.17 8.85L153.65 8.85L153.65 3.74L155.78 3.74ZM171.34 8.85L171.34 10.54L166.30 10.54L166.30 14.31L172.19 14.31L172.19 16.01L164.17 16.01L164.17 3.74L172.13 3.74L172.13 5.46L166.30 5.46L166.30 8.85L171.34 8.85ZM194.63 11.45L192.10 11.45L192.10 16.01L189.96 16.01L189.96 3.74L194.66 3.74Q196.71 3.74 197.92 4.81Q199.13 5.88 199.13 7.64L199.13 7.64Q199.13 9.45 197.95 10.45Q196.76 11.45 194.63 11.45L194.63 11.45ZM192.10 5.46L192.10 9.74L194.66 9.74Q195.80 9.74 196.39 9.21Q196.99 8.67 196.99 7.66L196.99 7.66Q196.99 6.67 196.39 6.07Q195.78 5.48 194.72 5.46L194.72 5.46L192.10 5.46ZM213.24 16.01L212.23 13.16L207.48 13.16L206.49 16.01L204.27 16.01L208.90 3.74L210.82 3.74L215.46 16.01L213.24 16.01ZM209.86 6.35L208.08 11.44L211.64 11.44L209.86 6.35ZM229.14 12.85L229.14 12.85Q229.14 12.04 228.57 11.61Q228.00 11.17 226.51 10.72Q225.03 10.27 224.15 9.73L224.15 9.73Q222.48 8.67 222.48 6.98L222.48 6.98Q222.48 5.50 223.69 4.53Q224.90 3.57 226.83 3.57L226.83 3.57Q228.11 3.57 229.11 4.05Q230.11 4.52 230.69 5.39Q231.26 6.26 231.26 7.32L231.26 7.32L229.14 7.32Q229.14 6.36 228.53 5.82Q227.93 5.28 226.81 5.28L226.81 5.28Q225.76 5.28 225.19 5.72Q224.61 6.17 224.61 6.97L224.61 6.97Q224.61 7.64 225.23 8.10Q225.86 8.55 227.29 8.97Q228.72 9.40 229.59 9.94Q230.46 10.49 230.86 11.19Q231.27 11.89 231.27 12.84L231.27 12.84Q231.27 14.37 230.09 15.28Q228.92 16.18 226.90 16.18L226.90 16.18Q225.57 16.18 224.45 15.69Q223.34 15.20 222.72 14.33Q222.10 13.46 222.10 12.31L222.10 12.31L224.23 12.31Q224.23 13.35 224.92 13.92Q225.61 14.50 226.90 14.50L226.90 14.50Q228.01 14.50 228.58 14.05Q229.14 13.60 229.14 12.85ZM247.88 3.74L247.88 5.46L244.05 5.46L244.05 16.01L241.93 16.01L241.93 5.46L238.14 5.46L238.14 3.74L247.88 3.74ZM253.27 18.78L253.27 18.78L252.17 18.12Q252.66 17.35 252.84 16.79Q253.02 16.22 253.03 15.63L253.03 15.63L253.03 14.03L254.87 14.03L254.87 15.51Q254.86 16.40 254.41 17.30Q253.97 18.20 253.27 18.78ZM277.68 11.45L275.14 11.45L275.14 16.01L273.01 16.01L273.01 3.74L277.70 3.74Q279.76 3.74 280.97 4.81Q282.18 5.88 282.18 7.64L282.18 7.64Q282.18 9.45 281.00 10.45Q279.81 11.45 277.68 11.45L277.68 11.45ZM275.14 5.46L275.14 9.74L277.70 9.74Q278.84 9.74 279.44 9.21Q280.04 8.67 280.04 7.66L280.04 7.66Q280.04 6.67 279.43 6.07Q278.82 5.48 277.76 5.46L277.76 5.46L275.14 5.46ZM292.04 3.74L292.04 14.31L297.61 14.31L297.61 16.01L289.91 16.01L289.91 3.74L292.04 3.74ZM313.15 16.01L312.15 13.16L307.39 13.16L306.40 16.01L304.18 16.01L308.82 3.74L310.73 3.74L315.38 16.01L313.15 16.01ZM309.77 6.35L307.99 11.44L311.55 11.44L309.77 6.35ZM332.37 3.74L332.37 16.01L330.24 16.01L324.77 7.31L324.77 16.01L322.64 16.01L322.64 3.74L324.77 3.74L330.26 12.48L330.26 3.74L332.37 3.74ZM350.50 3.74L350.50 16.01L348.36 16.01L342.89 7.31L342.89 16.01L340.76 16.01L340.76 3.74L342.89 3.74L348.38 12.48L348.38 3.74L350.50 3.74ZM361.14 3.74L361.14 16.01L359.01 16.01L359.01 3.74L361.14 3.74ZM379.36 3.74L379.36 16.01L377.23 16.01L371.76 7.31L371.76 16.01L369.63 16.01L369.63 3.74L371.76 3.74L377.25 12.48L377.25 3.74L379.36 3.74ZM397.16 9.72L397.16 14.42Q396.49 15.29 395.31 15.74Q394.13 16.18 392.63 16.18L392.63 16.18Q391.09 16.18 389.90 15.48Q388.71 14.78 388.07 13.48Q387.42 12.18 387.40 10.44L387.40 10.44L387.40 9.48Q387.40 6.70 388.73 5.14Q390.06 3.57 392.44 3.57L392.44 3.57Q394.49 3.57 395.70 4.59Q396.90 5.60 397.15 7.50L397.15 7.50L395.06 7.50Q394.70 5.28 392.49 5.28L392.49 5.28Q391.05 5.28 390.31 6.32Q389.56 7.35 389.54 9.35L389.54 9.35L389.54 10.29Q389.54 12.28 390.38 13.38Q391.21 14.48 392.71 14.48L392.71 14.48Q394.34 14.48 395.03 13.74L395.03 13.74L395.03 11.34L392.50 11.34L392.50 9.72L397.16 9.72ZM423.90 3.74L423.90 5.46L420.07 5.46L420.07 16.01L417.96 16.01L417.96 5.46L414.16 5.46L414.16 3.74L423.90 3.74ZM441.12 3.74L441.12 16.01L439.00 16.01L439.00 10.56L433.51 10.56L433.51 16.01L431.38 16.01L431.38 3.74L433.51 3.74L433.51 8.85L439.00 8.85L439.00 3.74L441.12 3.74ZM456.68 8.85L456.68 10.54L451.64 10.54L451.64 14.31L457.53 14.31L457.53 16.01L449.51 16.01L449.51 3.74L457.47 3.74L457.47 5.46L451.64 5.46L451.64 8.85L456.68 8.85ZM482.38 9.11L482.38 10.81L477.44 10.81L477.44 16.01L475.31 16.01L475.31 3.74L483.10 3.74L483.10 5.46L477.44 5.46L477.44 9.11L482.38 9.11ZM497.51 3.74L499.63 3.74L499.63 11.94Q499.63 13.90 498.38 15.04Q497.13 16.18 495.05 16.18L495.05 16.18Q492.94 16.18 491.70 15.06Q490.46 13.93 490.46 11.93L490.46 11.93L490.46 3.74L492.59 3.74L492.59 11.95Q492.59 13.18 493.21 13.83Q493.83 14.48 495.05 14.48L495.05 14.48Q497.51 14.48 497.51 11.88L497.51 11.88L497.51 3.74ZM516.64 3.74L516.64 5.46L512.82 5.46L512.82 16.01L510.70 16.01L510.70 5.46L506.91 5.46L506.91 3.74L516.64 3.74ZM530.98 3.74L533.10 3.74L533.10 11.94Q533.10 13.90 531.85 15.04Q530.60 16.18 528.52 16.18L528.52 16.18Q526.41 16.18 525.17 15.06Q523.93 13.93 523.93 11.93L523.93 11.93L523.93 3.74L526.05 3.74L526.05 11.95Q526.05 13.18 526.68 13.83Q527.30 14.48 528.52 14.48L528.52 14.48Q530.98 14.48 530.98 11.88L530.98 11.88L530.98 3.74ZM548.22 16.01L545.75 11.29L543.38 11.29L543.38 16.01L541.25 16.01L541.25 3.74L545.56 3.74Q547.68 3.74 548.84 4.69Q549.99 5.65 549.99 7.45L549.99 7.45Q549.99 8.68 549.40 9.51Q548.81 10.34 547.74 10.79L547.74 10.79L550.50 15.90L550.50 16.01L548.22 16.01ZM543.38 5.46L543.38 9.57L545.57 9.57Q546.65 9.57 547.25 9.03Q547.86 8.49 547.86 7.54L547.86 7.54Q547.86 6.56 547.30 6.02Q546.74 5.48 545.63 5.46L545.63 5.46L543.38 5.46ZM565.06 8.85L565.06 10.54L560.02 10.54L560.02 14.31L565.91 14.31L565.91 16.01L557.89 16.01L557.89 3.74L565.85 3.74L565.85 5.46L560.02 5.46L560.02 8.85L565.06 8.85Z" transform="translate(0, 0)"></path></g></svg> <svg y="288.375" viewBox="1.9300000667572021 19.84000015258789 265.8399963378906 41.90999984741211" x="154.5799981689453" height="41.90999984741211" width="265.8399963378906" style="overflow: visible;"><g fill="#fff" fill-opacity="1" style=""><path d="M41.85 33.27L30.82 33.27Q29.71 31.22 27.64 30.14Q25.56 29.07 22.76 29.07L22.76 29.07Q17.92 29.07 15.00 32.25Q12.08 35.43 12.08 40.74L12.08 40.74Q12.08 46.40 15.15 49.58Q18.21 52.76 23.58 52.76L23.58 52.76Q27.26 52.76 29.79 50.89Q32.33 49.03 33.50 45.52L33.50 45.52L20.84 45.52L20.84 38.17L42.55 38.17L42.55 47.45Q41.44 51.19 38.78 54.40Q36.13 57.61 32.04 59.59Q27.96 61.57 22.82 61.57L22.82 61.57Q16.75 61.57 11.99 58.92Q7.24 56.26 4.58 51.54Q1.93 46.81 1.93 40.74L1.93 40.74Q1.93 34.67 4.58 29.91Q7.24 25.15 11.96 22.50Q16.69 19.84 22.76 19.84L22.76 19.84Q30.12 19.84 35.16 23.40Q40.21 26.96 41.85 33.27L41.85 33.27ZM78.79 44.47Q78.79 45.87 78.62 47.39L78.62 47.39L56.03 47.39Q56.26 50.43 57.98 52.03Q59.71 53.64 62.22 53.64L62.22 53.64Q65.95 53.64 67.41 50.48L67.41 50.48L78.03 50.48Q77.22 53.69 75.09 56.26Q72.95 58.83 69.74 60.29Q66.53 61.75 62.57 61.75L62.57 61.75Q57.78 61.75 54.04 59.71Q50.31 57.66 48.21 53.87Q46.11 50.08 46.11 45.00L46.11 45.00Q46.11 39.92 48.18 36.13Q50.25 32.33 53.99 30.29Q57.72 28.25 62.57 28.25L62.57 28.25Q67.29 28.25 70.97 30.23Q74.65 32.22 76.72 35.89Q78.79 39.57 78.79 44.47L78.79 44.47ZM56.09 41.85L68.58 41.85Q68.58 39.28 66.83 37.76Q65.08 36.24 62.45 36.24L62.45 36.24Q59.94 36.24 58.22 37.70Q56.50 39.16 56.09 41.85L56.09 41.85ZM98.87 61.75Q94.08 61.75 90.26 59.71Q86.44 57.66 84.25 53.87Q82.06 50.08 82.06 45.00L82.06 45.00Q82.06 39.98 84.28 36.16Q86.50 32.33 90.35 30.29Q94.20 28.25 98.99 28.25L98.99 28.25Q103.77 28.25 107.62 30.29Q111.47 32.33 113.69 36.16Q115.91 39.98 115.91 45.00L115.91 45.00Q115.91 50.02 113.66 53.84Q111.42 57.66 107.54 59.71Q103.65 61.75 98.87 61.75L98.87 61.75ZM98.87 53.11Q101.73 53.11 103.74 51.01Q105.76 48.91 105.76 45.00L105.76 45.00Q105.76 41.09 103.80 38.99Q101.84 36.89 98.99 36.89L98.99 36.89Q96.07 36.89 94.14 38.96Q92.21 41.03 92.21 45.00L92.21 45.00Q92.21 48.91 94.11 51.01Q96.01 53.11 98.87 53.11L98.87 53.11ZM157.87 20.31L157.87 61.28L147.89 61.28L131.20 36.01L131.20 61.28L121.22 61.28L121.22 20.31L131.20 20.31L147.89 45.70L147.89 20.31L157.87 20.31ZM195.81 44.47Q195.81 45.87 195.64 47.39L195.64 47.39L173.05 47.39Q173.28 50.43 175.00 52.03Q176.73 53.64 179.24 53.64L179.24 53.64Q182.97 53.64 184.43 50.48L184.43 50.48L195.05 50.48Q194.23 53.69 192.10 56.26Q189.97 58.83 186.76 60.29Q183.55 61.75 179.59 61.75L179.59 61.75Q174.80 61.75 171.06 59.71Q167.33 57.66 165.23 53.87Q163.13 50.08 163.13 45.00L163.13 45.00Q163.13 39.92 165.20 36.13Q167.27 32.33 171.01 30.29Q174.74 28.25 179.59 28.25L179.59 28.25Q184.31 28.25 187.99 30.23Q191.67 32.22 193.74 35.89Q195.81 39.57 195.81 44.47L195.81 44.47ZM173.11 41.85L185.60 41.85Q185.60 39.28 183.85 37.76Q182.10 36.24 179.47 36.24L179.47 36.24Q176.96 36.24 175.24 37.70Q173.52 39.16 173.11 41.85L173.11 41.85ZM231.53 61.28L220.32 61.28L214.08 52.24L208.83 61.28L198.03 61.28L208.77 44.65L197.74 28.72L208.94 28.72L215.19 37.70L220.44 28.72L231.24 28.72L220.32 45.12L231.53 61.28ZM233.40 44.94Q233.40 39.92 235.29 36.13Q237.19 32.33 240.46 30.29Q243.73 28.25 247.75 28.25L247.75 28.25Q251.20 28.25 253.80 29.65Q256.39 31.05 257.79 33.33L257.79 33.33L257.79 28.72L267.77 28.72L267.77 61.28L257.79 61.28L257.79 56.67Q256.33 58.95 253.74 60.35Q251.14 61.75 247.70 61.75L247.70 61.75Q243.73 61.75 240.46 59.68Q237.19 57.61 235.29 53.78Q233.40 49.96 233.40 44.94L233.40 44.94ZM257.79 45.00Q257.79 41.26 255.72 39.10Q253.65 36.94 250.67 36.94L250.67 36.94Q247.70 36.94 245.62 39.07Q243.55 41.20 243.55 44.94L243.55 44.94Q243.55 48.68 245.62 50.86Q247.70 53.05 250.67 53.05L250.67 53.05Q253.65 53.05 255.72 50.89Q257.79 48.73 257.79 45.00L257.79 45.00Z" transform="translate(0, 0)"></path></g></svg></svg>